<?xml version="1.0" encoding="UTF-8"?>
<svg id="Ebene_2" data-name="Ebene 2" xmlns="http://www.w3.org/2000/svg" viewBox="0 0 86.4 30.56">
  <g id="Ebene_1-2" data-name="Ebene 1">
    <g>
      <path d="M33.45,6.31c-.11,3.13-1.66,6.6-4.9,6.69-.98.03-1.84-.44-2.2-1.3l-.39,1.15-3.18-.04L26.32.05l3.31-.05-1.28,4.79c.87-.7,1.61-1.08,2.64-1.08,1.45,0,2.51,1.07,2.46,2.6ZM29.1,10.03c.6-1,1.13-2.27.84-3.39-.16-.62-1.2-.5-1.59-.28-.82.46-1.3,2.37-1.34,3.6,0,.33.77.64,1.08.58.27-.05.85-.25,1.01-.52Z"/>
      <path d="M62.99,12.82h-3.32s1.58-5.66,1.58-5.66c.05-.19-.22-.7-.42-.75-.67-.18-1.59.18-1.79.9l-1.52,5.52h-3.31S57.79.05,57.79.05l3.26-.04-1.29,4.89c1.16-1.14,2.74-1.59,4.15-.82.84.46.89,1.5.81,2.41l-1.73,6.34Z"/>
      <path d="M74.74,28.71c-.79,1.26-2.21,1.93-3.56,1.84l-1.62-.11.79-2.62c1.15.36,2.07,0,2.48-1l-1.17-8.52h3.32s.23,5.02.23,5.02l2.7-5.02h3.34s-6.51,10.42-6.51,10.42Z"/>
      <path d="M37.58,24.7c-1.1,2.25-3.3,3.02-5.62,2.74-1.59-.2-2.88-1.23-2.82-2.95.05-1.62.52-3.33,1.56-4.63,1.25-1.56,3.29-1.96,5.2-1.66,1.57.25,2.67,1.38,2.6,3.04-.05,1.14-.39,2.38-.92,3.46ZM35.22,20.91c-.74-.65-1.58-.37-2.11.34-.4,1.05-.77,2.09-.7,3.3.02.33.8.59,1.09.5,1.35-.43,1.78-2.48,1.73-4.14Z"/>
      <polygon points="28.12 24.29 27.39 27.3 18.82 27.31 22.27 14.5 25.73 14.46 23.13 24.28 28.12 24.29"/>
      <path d="M59.18,24.19l2.3,1.11c-1.4,1.99-3.68,2.51-6.07,2.02-1.19-.24-2.09-1.2-2.19-2.44-.16-1.92.41-3.9,1.78-5.28,1.49-1.51,3.8-1.89,5.73-1.12s2.02,2.97,1.31,5.02l-5.59.03c-.39.38-.16,1.31.38,1.49.86.27,1.67.1,2.36-.81ZM59.38,21.82c.09-.41.04-1.09-.18-1.27-.41-.34-1.25-.32-1.69.02-.3.23-.58.77-.73,1.22l2.6.03Z"/>
      <path d="M53.54,10.32l-.6,2.42c-.99.17-2.1.22-3.17.06-.97-.15-1.68-1.13-1.41-2.14l1.19-4.41-1.25-.06.72-2.3,1.29-.05.73-2.7h3.33s-.72,2.73-.72,2.73l1.69.04-.68,2.26-1.77.07-1.01,3.72c.18.39.84.48,1.67.35Z"/>
      <path d="M44.64,24.73l-.6,2.56c-.95.08-1.88.13-2.84.02-1.15-.13-1.89-1.28-1.6-2.41l1.07-4.2-1.18-.05.62-2.36h1.3s.68-2.78.68-2.78l3.31-.04-.73,2.8,1.66.03-.6,2.37-1.76.02-.98,3.7c.31.38.76.44,1.66.35Z"/>
      <path d="M51.84,24.81l-.62,2.44c-.98.16-1.97.21-2.97.03s-1.75-1.17-1.48-2.22l1.11-4.36-1.18-.06.6-2.34,1.31-.11.72-2.71h3.23s-.73,2.78-.73,2.78l1.68.04-.57,2.36h-1.79s-1,3.9-1,3.9l1.71.25Z"/>
      <path d="M42.12,12.81h-3.44s2.61-8.9,2.61-8.9l3.2-.02.02.88c.99-.82,2.01-1.28,3.44-.93l-.98,2.95c-1-.31-2.76-.34-3.22.81-.68,1.69-1.06,3.36-1.63,5.21Z"/>
      <path d="M65.74,27.3h-3.25s2.38-9,2.38-9h3.08s-.09,1-.09,1c.87-.95,2-1.39,3.35-1.08l-.96,3.02c-.97-.33-2.59-.31-3,.77-.66,1.74-1.03,3.53-1.51,5.29Z"/>
      <g>
        <path d="M8.71,11.47c-1.44,3.12-4.6,8.11-6.97,5.48C.59,15.68.03,14.03,0,12.3c.08-1.14.94-1.87,2.11-1.93,2.21-.11,4.43.29,6.59,1.1Z"/>
        <path d="M8.94,10.92c-2.14-.64-5.59-2.32-5.68-3.85-.03-.42.24-1.13.6-1.42,1.79-1.45,5.09-2.94,6.21-1.86s-.17,4.89-1.12,7.13Z"/>
        <path d="M14.39,16.45c-1.47,1.84-4.94,3.63-6.16,2.52s.07-5.12,1-7.31c1.77.49,3.25,1.26,4.65,2.25.84.6,1.08,1.57.5,2.54Z"/>
        <path d="M16.67,9.98c-.07,2.7-4.21,2.09-7.13,1.12.81-2.16,2.92-6.11,4.68-6.03,1.45.07,2.5,2.83,2.45,4.91Z"/>
      </g>
      <polygon points="36.8 12.8 33.34 12.82 36 3.9 39.4 3.9 36.8 12.8"/>
      <path d="M82.96,29.24c-1.54-.15-2.52-1.41-2.71-2.72-.21-1.45.54-2.86,1.98-3.38,1.97-.71,3.91.58,4.15,2.57s-1.26,3.73-3.42,3.53ZM83.48,28.52c1.59-.16,2.41-1.6,2.17-2.88-.28-1.46-1.71-2.34-3.14-1.85-1.21.41-1.79,1.68-1.53,2.85.24,1.05,1.23,2,2.5,1.88Z"/>
      <polygon points="39.77 2.69 36.35 2.7 37.06 0 40.46 .02 39.77 2.69"/>
      <path d="M84.04,27.67c-.29-.02-.35-1.38-1.19-1.35l-.06,1.42h-.66s0-3.33,0-3.33l1.69.05c.28,0,.75.49.76.76.01.33-.2.73-.55,1.07l.69,1.42-.68-.05ZM83.82,25.21c-.12-.29-.93-.4-1.01-.15-.16.47.08.86.4.88.4.02.81-.24.61-.72Z"/>
    </g>
  </g>
</svg>